<svg xmlns="http://www.w3.org/2000/svg" fill="none" viewBox="0 0 24 24" id="network"><path fill="#fdcb66" fill-rule="evenodd" d="M11.975 1.25h.05c.445 0 .816 0 1.12.02.318.022.617.07.907.19a2.75 2.75 0 0 1 1.489 1.488c.12.29.167.59.188.907.021.304.021.675.021 1.12v.05c0 .445 0 .816-.02 1.12a2.822 2.822 0 0 1-.19.907 2.75 2.75 0 0 1-1.488 1.489c-.29.12-.59.167-.907.188a8.484 8.484 0 0 1-.395.016v2.505h2.288c.67 0 1.229 0 1.681.046.473.048.913.153 1.309.418.3.2.558.458.759.758.264.396.369.835.417 1.309.029.283.04.607.044.973.143.004.275.008.397.017.317.021.617.068.907.188a2.75 2.75 0 0 1 1.489 1.489c.12.29.167.59.188.907.021.304.021.675.021 1.12v.05c0 .445 0 .816-.02 1.12a2.822 2.822 0 0 1-.19.907 2.75 2.75 0 0 1-1.488 1.489c-.29.12-.59.167-.907.188-.304.021-.675.021-1.12.021h-.05c-.445 0-.816 0-1.12-.02a2.822 2.822 0 0 1-.907-.19 2.75 2.75 0 0 1-1.489-1.488c-.12-.29-.167-.59-.188-.907-.021-.304-.021-.675-.021-1.12v-.05c0-.445 0-.816.02-1.12.022-.317.069-.617.19-.907a2.75 2.75 0 0 1 1.488-1.489c.29-.12.59-.167.907-.188.12-.008.25-.013.392-.016a9.42 9.42 0 0 0-.035-.822c-.036-.355-.1-.519-.173-.627a1.252 1.252 0 0 0-.345-.345c-.108-.073-.272-.137-.627-.173-.367-.037-.85-.038-1.567-.038H9.105c-.718 0-1.2 0-1.568.038-.354.036-.518.1-.627.173a1.25 1.25 0 0 0-.345.345c-.072.108-.136.272-.172.627a9.45 9.45 0 0 0-.036.824c.102.003.198.008.288.014.317.021.617.068.907.188a2.75 2.75 0 0 1 1.489 1.489c.12.29.167.59.188.907.021.304.021.675.021 1.12v.05c0 .445 0 .816-.02 1.12a2.823 2.823 0 0 1-.19.907 2.75 2.75 0 0 1-1.488 1.489c-.29.12-.59.167-.907.188-.304.021-.675.021-1.12.021h-.05c-.445 0-.816 0-1.12-.02a2.822 2.822 0 0 1-.907-.19 2.75 2.75 0 0 1-1.489-1.488c-.12-.29-.167-.59-.188-.907-.021-.304-.021-.675-.021-1.12v-.05c0-.445 0-.816.02-1.12.022-.317.07-.617.19-.907a2.75 2.75 0 0 1 1.488-1.489c.29-.12.59-.167.907-.188.15-.01.318-.016.502-.018.004-.366.015-.69.044-.972.048-.474.152-.913.417-1.309.2-.3.459-.558.759-.758.396-.265.835-.37 1.309-.418.452-.046 1.01-.046 1.68-.046h2.184V8.745a8.484 8.484 0 0 1-.395-.016 2.823 2.823 0 0 1-.907-.188 2.75 2.75 0 0 1-1.489-1.489c-.12-.29-.167-.59-.188-.907-.021-.304-.021-.675-.021-1.12v-.05c0-.445 0-.816.02-1.12.022-.317.07-.617.19-.907a2.75 2.75 0 0 1 1.488-1.489c.29-.12.59-.167.907-.188.304-.021.675-.021 1.12-.021Zm-1.018 1.517c-.241.017-.358.046-.435.078a1.25 1.25 0 0 0-.677.677c-.032.077-.061.194-.078.435A17.09 17.09 0 0 0 9.75 5c0 .476 0 .796.017 1.043.017.241.046.358.078.435.127.307.37.55.677.677.077.032.194.061.435.078.247.017.567.017 1.043.017s.796 0 1.043-.017c.241-.017.358-.046.435-.078.307-.127.55-.37.677-.677.032-.077.061-.194.078-.435.017-.247.017-.567.017-1.043s0-.796-.017-1.043c-.017-.241-.046-.358-.078-.435a1.25 1.25 0 0 0-.677-.677c-.077-.032-.194-.061-.435-.078A17.091 17.091 0 0 0 12 2.75c-.476 0-.796 0-1.043.017Zm-6.5 13.5c-.241.017-.358.046-.435.078a1.25 1.25 0 0 0-.677.677c-.032.077-.061.194-.078.435-.017.247-.017.567-.017 1.043s0 .796.017 1.043c.017.241.046.358.078.435.127.307.37.55.677.677.077.032.194.061.435.078.247.017.567.017 1.043.017s.796 0 1.043-.017c.241-.017.358-.046.435-.078.307-.127.55-.37.677-.677.032-.077.061-.194.078-.435.017-.247.017-.567.017-1.043s0-.796-.017-1.043c-.017-.241-.046-.358-.078-.435a1.25 1.25 0 0 0-.677-.677c-.077-.032-.194-.061-.435-.078A17.07 17.07 0 0 0 5.5 16.25c-.476 0-.796 0-1.043.017Zm12.565.078c.077-.032.194-.061.435-.078.247-.017.567-.017 1.043-.017s.796 0 1.043.017c.241.017.358.046.435.078.307.127.55.37.677.677.032.077.061.194.078.435.017.247.017.567.017 1.043s0 .796-.017 1.043c-.017.241-.046.358-.078.435a1.25 1.25 0 0 1-.677.677c-.077.032-.194.061-.435.078-.247.017-.567.017-1.043.017s-.796 0-1.043-.017c-.241-.017-.358-.046-.435-.078a1.25 1.25 0 0 1-.677-.677c-.032-.077-.061-.194-.078-.435a17.073 17.073 0 0 1-.017-1.043c0-.476 0-.796.017-1.043.017-.241.046-.358.078-.435.127-.307.37-.55.677-.677Z" clip-rule="evenodd" class="color292d32 svgShape"></path></svg>